<svg xmlns="http://www.w3.org/2000/svg" width="1200" height="360" viewBox="0 0 1200 360">
  <rect width="1200" height="360" rx="36" fill="#ffffff"/>
  <g transform="translate(70 52) scale(.5)">

  <rect width="512" height="512" rx="104" fill="#0f172a"/>
  <path d="M256 58 398 108v122c0 97-56 177-142 224-86-47-142-127-142-224V108L256 58Z" fill="#2563eb"/>
  <path d="M256 92 365 130v99c0 75-41 139-109 178-68-39-109-103-109-178v-99L256 92Z" fill="#111827"/>
  <circle cx="256" cy="250" r="94" fill="none" stroke="#f8fafc" stroke-width="30"/>
  <circle cx="256" cy="250" r="22" fill="#f8fafc"/>
  <path d="M176 286 120 342" stroke="#f8fafc" stroke-width="30" stroke-linecap="round"/>
  <path d="M336 286 392 342" stroke="#f8fafc" stroke-width="30" stroke-linecap="round"/>
  <path d="M256 272v91" stroke="#f8fafc" stroke-width="30" stroke-linecap="round"/>
  <path d="M199 211c34-22 80-22 114 0" fill="none" stroke="#2563eb" stroke-width="22" stroke-linecap="round"/>


  </g>
  <text x="370" y="155" font-family="Segoe UI, Arial, sans-serif" font-size="76" font-weight="800" fill="#111827">Cockpit Guardian</text>
  <text x="374" y="220" font-family="Segoe UI, Arial, sans-serif" font-size="31" font-weight="500" fill="#475569">Is your cockpit ready to race?</text>
  <rect x="374" y="252" width="242" height="14" rx="7" fill="#2563eb"/>
</svg>
